<svg xmlns="http://www.w3.org/2000/svg" width="256" height="256" viewBox="0 0 256 256">
  <title>Connection settings</title>
  <desc>Contour light surface. Phosphor Icons 2.1.1, copyright 2023 Phosphor Icons, MIT. Generated; see tools/icon-themes.</desc>
  <defs>
    <linearGradient id="p0-color" gradientUnits="userSpaceOnUse" x1="0" y1="0" x2="256" y2="0"><stop offset="0" stop-color="#344653" stop-opacity="1"/><stop offset="0.31" stop-color="#344653" stop-opacity="1"/><stop offset="0.31" stop-color="#148590" stop-opacity="1"/><stop offset="0.55" stop-color="#148590" stop-opacity="1"/><stop offset="0.55" stop-color="#344653" stop-opacity="1"/><stop offset="1" stop-color="#344653" stop-opacity="1"/></linearGradient>
  </defs>
  <g transform="matrix(1 0 0 1 0 0)">
    <path d="M176,162a37.91,37.91,0,0,0-28.3,12.67L98.8,143.24a37.89,37.89,0,0,0,0-30.48l48.9-31.43a38,38,0,1,0-6.5-10.09L92.3,102.67a38,38,0,1,0,0,50.66l48.9,31.43A38,38,0,1,0,176,162Zm0-132a26,26,0,1,1-26,26A26,26,0,0,1,176,30ZM64,154a26,26,0,1,1,26-26A26,26,0,0,1,64,154Zm112,72a26,26,0,1,1,26-26A26,26,0,0,1,176,226Z" fill="url(#p0-color)"/>
  </g>
</svg>
