<svg xmlns="http://www.w3.org/2000/svg" width="256" height="256" viewBox="0 0 256 256">
  <title>Public hubs</title>
  <desc>Prism light surface. Phosphor Icons 2.1.1, copyright 2023 Phosphor Icons, MIT. Generated; see tools/icon-themes.</desc>
  <defs>
    <linearGradient id="p0-body" gradientUnits="userSpaceOnUse" x1="0" y1="0" x2="0" y2="256"><stop offset="0" stop-color="#a3dbfa" stop-opacity="1"/><stop offset="0.22" stop-color="#3db4f4" stop-opacity="1"/><stop offset="0.5" stop-color="#009cf0" stop-opacity="1"/><stop offset="0.76" stop-color="#0090dd" stop-opacity="1"/><stop offset="1" stop-color="#006195" stop-opacity="1"/></linearGradient>
    <linearGradient id="p0-rim" gradientUnits="userSpaceOnUse" x1="0" y1="0" x2="0" y2="256"><stop offset="0" stop-color="#003e60" stop-opacity="1"/><stop offset="0.5" stop-color="#00273c" stop-opacity="1"/><stop offset="1" stop-color="#001b29" stop-opacity="1"/></linearGradient>
    <linearGradient id="p0-shine" gradientUnits="userSpaceOnUse" x1="0" y1="0" x2="0" y2="256"><stop offset="0" stop-color="#ffffff" stop-opacity="0.65"/><stop offset="0.25" stop-color="#ffffff" stop-opacity="0.28"/><stop offset="0.46" stop-color="#ffffff" stop-opacity="0.08"/><stop offset="0.49" stop-color="#ffffff" stop-opacity="0"/><stop offset="1" stop-color="#ffffff" stop-opacity="0"/></linearGradient>
    <linearGradient id="p1-body" gradientUnits="userSpaceOnUse" x1="0" y1="0" x2="0" y2="256"><stop offset="0" stop-color="#d5f1a3" stop-opacity="1"/><stop offset="0.22" stop-color="#a5e23d" stop-opacity="1"/><stop offset="0.5" stop-color="#89d900" stop-opacity="1"/><stop offset="0.76" stop-color="#7ec800" stop-opacity="1"/><stop offset="1" stop-color="#558700" stop-opacity="1"/></linearGradient>
    <linearGradient id="p1-rim" gradientUnits="userSpaceOnUse" x1="0" y1="0" x2="0" y2="256"><stop offset="0" stop-color="#375700" stop-opacity="1"/><stop offset="0.5" stop-color="#223600" stop-opacity="1"/><stop offset="1" stop-color="#172500" stop-opacity="1"/></linearGradient>
    <linearGradient id="p1-shine" gradientUnits="userSpaceOnUse" x1="0" y1="0" x2="0" y2="256"><stop offset="0" stop-color="#ffffff" stop-opacity="0.65"/><stop offset="0.25" stop-color="#ffffff" stop-opacity="0.28"/><stop offset="0.46" stop-color="#ffffff" stop-opacity="0.08"/><stop offset="0.49" stop-color="#ffffff" stop-opacity="0"/><stop offset="1" stop-color="#ffffff" stop-opacity="0"/></linearGradient>
  </defs>
  <g transform="matrix(1 0 0 1 0 0)">
    <path d="M224,128a96,96,0,1,1-96-96A96,96,0,0,1,224,128Z" fill="url(#p0-body)"/>
    <path d="M224,128a96,96,0,1,1-96-96A96,96,0,0,1,224,128Z" fill="url(#p0-shine)"/>
    <path d="M128,24A104,104,0,1,0,232,128,104.11,104.11,0,0,0,128,24Zm0,192a88,88,0,1,1,88-88A88.1,88.1,0,0,1,128,216Z" fill="url(#p0-rim)"/>
  </g>
  <g transform="matrix(1 0 0 1 0 0)">
    <path d="M213.09,172.48a96,96,0,0,1-80.41,51.41l3.17-16.44a8,8,0,0,0-2-6.95l-19.74-20.33a8,8,0,0,1-1.44-8.69l13.7-30.74a8,8,0,0,1,8.38-4.67l22.82,3.08a8.11,8.11,0,0,1,3.12,1.11ZM116.71,95,129,88.24a7.46,7.46,0,0,0,1.5-1.07l26.91-24.33A8,8,0,0,0,159,53l-10.5-18.81A96.62,96.62,0,0,0,128,32,95.61,95.61,0,0,0,67.78,53.23L56,81.08A8,8,0,0,0,55.88,87l11.5,30.67a8,8,0,0,0,5.81,5l2.69.58L89.2,100a8,8,0,0,1,6.94-4h16.71A7.9,7.9,0,0,0,116.71,95Z" fill="url(#p1-body)"/>
    <path d="M213.09,172.48a96,96,0,0,1-80.41,51.41l3.17-16.44a8,8,0,0,0-2-6.95l-19.74-20.33a8,8,0,0,1-1.44-8.69l13.7-30.74a8,8,0,0,1,8.38-4.67l22.82,3.08a8.11,8.11,0,0,1,3.12,1.11ZM116.71,95,129,88.24a7.46,7.46,0,0,0,1.5-1.07l26.91-24.33A8,8,0,0,0,159,53l-10.5-18.81A96.62,96.62,0,0,0,128,32,95.61,95.61,0,0,0,67.78,53.23L56,81.08A8,8,0,0,0,55.88,87l11.5,30.67a8,8,0,0,0,5.81,5l2.69.58L89.2,100a8,8,0,0,1,6.94-4h16.71A7.9,7.9,0,0,0,116.71,95Z" fill="url(#p1-shine)"/>
    <path d="M128,24A104,104,0,1,0,232,128,104.11,104.11,0,0,0,128,24Zm88,104a87.62,87.62,0,0,1-6.4,32.94l-44.7-27.49a15.92,15.92,0,0,0-6.24-2.23l-22.82-3.08a16.11,16.11,0,0,0-16,7.86h-8.72l-3.8-7.86a15.91,15.91,0,0,0-11-8.67l-8-1.73L96.14,104h16.71a16.06,16.06,0,0,0,7.73-2l12.25-6.76a16.62,16.62,0,0,0,3-2.14l26.91-24.34A15.93,15.93,0,0,0,166,49.1l-.36-.65A88.11,88.11,0,0,1,216,128ZM143.31,41.34,152,56.9,125.09,81.24,112.85,88H96.14a16,16,0,0,0-13.88,8l-8.73,15.23L63.38,84.19,74.32,58.32a87.87,87.87,0,0,1,69-17ZM40,128a87.53,87.53,0,0,1,8.54-37.8l11.34,30.27a16,16,0,0,0,11.62,10l21.43,4.61L96.74,143a16.09,16.09,0,0,0,14.4,9h1.48l-7.23,16.23a16,16,0,0,0,2.86,17.37l.14.14L128,205.94l-1.94,10A88.11,88.11,0,0,1,40,128Zm102.58,86.78,1.13-5.81a16.09,16.09,0,0,0-4-13.9,1.85,1.85,0,0,1-.14-.14L120,174.74,133.7,144l22.82,3.08,45.72,28.12A88.18,88.18,0,0,1,142.58,214.78Z" fill="url(#p1-rim)"/>
  </g>
</svg>
