<svg xmlns="http://www.w3.org/2000/svg" width="256" height="256" viewBox="0 0 256 256">
  <title>Add bookmark or favorite</title>
  <desc>Prism dark surface. Phosphor Icons 2.1.1, copyright 2023 Phosphor Icons, MIT. Generated; see tools/icon-themes.</desc>
  <defs>
    <linearGradient id="p0-body" gradientUnits="userSpaceOnUse" x1="0" y1="0" x2="0" y2="256"><stop offset="0" stop-color="#fff0b2" stop-opacity="1"/><stop offset="0.22" stop-color="#ffde5d" stop-opacity="1"/><stop offset="0.5" stop-color="#ffd42a" stop-opacity="1"/><stop offset="0.76" stop-color="#ebc327" stop-opacity="1"/><stop offset="1" stop-color="#9e831a" stop-opacity="1"/></linearGradient>
    <linearGradient id="p0-rim" gradientUnits="userSpaceOnUse" x1="0" y1="0" x2="0" y2="256"><stop offset="0" stop-color="#665511" stop-opacity="1"/><stop offset="0.5" stop-color="#40350b" stop-opacity="1"/><stop offset="1" stop-color="#2b2407" stop-opacity="1"/></linearGradient>
    <linearGradient id="p0-ink" gradientUnits="userSpaceOnUse" x1="0" y1="0" x2="0" y2="256"><stop offset="0" stop-color="#effaff" stop-opacity="1"/><stop offset="0.45" stop-color="#c3deea" stop-opacity="1"/><stop offset="1" stop-color="#88adbe" stop-opacity="1"/></linearGradient>
    <linearGradient id="p0-shine" gradientUnits="userSpaceOnUse" x1="0" y1="0" x2="0" y2="256"><stop offset="0" stop-color="#ffffff" stop-opacity="0.65"/><stop offset="0.25" stop-color="#ffffff" stop-opacity="0.28"/><stop offset="0.46" stop-color="#ffffff" stop-opacity="0.08"/><stop offset="0.49" stop-color="#ffffff" stop-opacity="0"/><stop offset="1" stop-color="#ffffff" stop-opacity="0"/></linearGradient>
    <linearGradient id="p1-body" gradientUnits="userSpaceOnUse" x1="0" y1="0" x2="0" y2="256"><stop offset="0" stop-color="#ddf9aa" stop-opacity="1"/><stop offset="0.22" stop-color="#b7f34b" stop-opacity="1"/><stop offset="0.5" stop-color="#a0ef12" stop-opacity="1"/><stop offset="0.76" stop-color="#93dc11" stop-opacity="1"/><stop offset="1" stop-color="#63940b" stop-opacity="1"/></linearGradient>
    <linearGradient id="p1-rim" gradientUnits="userSpaceOnUse" x1="0" y1="0" x2="0" y2="256"><stop offset="0" stop-color="#406007" stop-opacity="1"/><stop offset="0.5" stop-color="#283c05" stop-opacity="1"/><stop offset="1" stop-color="#1b2903" stop-opacity="1"/></linearGradient>
    <linearGradient id="p1-ink" gradientUnits="userSpaceOnUse" x1="0" y1="0" x2="0" y2="256"><stop offset="0" stop-color="#effaff" stop-opacity="1"/><stop offset="0.45" stop-color="#c3deea" stop-opacity="1"/><stop offset="1" stop-color="#88adbe" stop-opacity="1"/></linearGradient>
    <linearGradient id="p1-shine" gradientUnits="userSpaceOnUse" x1="0" y1="0" x2="0" y2="256"><stop offset="0" stop-color="#ffffff" stop-opacity="0.65"/><stop offset="0.25" stop-color="#ffffff" stop-opacity="0.28"/><stop offset="0.46" stop-color="#ffffff" stop-opacity="0.08"/><stop offset="0.49" stop-color="#ffffff" stop-opacity="0"/><stop offset="1" stop-color="#ffffff" stop-opacity="0"/></linearGradient>
  </defs>
  <g transform="matrix(0.74 0 0 0.74 2 0)">
    <path d="M192,48V224l-64-40L64,224V48a8,8,0,0,1,8-8H184A8,8,0,0,1,192,48Z" fill="url(#p0-body)"/>
    <path d="M192,48V224l-64-40L64,224V48a8,8,0,0,1,8-8H184A8,8,0,0,1,192,48Z" fill="url(#p0-shine)"/>
    <path d="M184,32H72A16,16,0,0,0,56,48V224a8,8,0,0,0,12.24,6.78L128,193.43l59.77,37.35A8,8,0,0,0,200,224V48A16,16,0,0,0,184,32Zm0,177.57-51.77-32.35a8,8,0,0,0-8.48,0L72,209.57V48H184Z" fill="url(#p0-ink)"/>
  </g>
  <g transform="matrix(0.43 0 0 0.43 141 139)">
    <path d="M224,128a96,96,0,1,1-96-96A96,96,0,0,1,224,128Z" fill="url(#p1-body)"/>
    <path d="M224,128a96,96,0,1,1-96-96A96,96,0,0,1,224,128Z" fill="url(#p1-shine)"/>
    <path d="M128,24A104,104,0,1,0,232,128,104.11,104.11,0,0,0,128,24Zm0,192a88,88,0,1,1,88-88A88.1,88.1,0,0,1,128,216Zm48-88a8,8,0,0,1-8,8H136v32a8,8,0,0,1-16,0V136H88a8,8,0,0,1,0-16h32V88a8,8,0,0,1,16,0v32h32A8,8,0,0,1,176,128Z" fill="url(#p1-ink)"/>
  </g>
</svg>
