<svg xmlns="http://www.w3.org/2000/svg" width="256" height="256" viewBox="0 0 256 256">
  <title>Group chat</title>
  <desc>Prism dark surface. Phosphor Icons 2.1.1, copyright 2023 Phosphor Icons, MIT. Generated; see tools/icon-themes.</desc>
  <defs>
    <linearGradient id="p0-body" gradientUnits="userSpaceOnUse" x1="0" y1="0" x2="0" y2="256"><stop offset="0" stop-color="#aff3ec" stop-opacity="1"/><stop offset="0.22" stop-color="#56e7d7" stop-opacity="1"/><stop offset="0.5" stop-color="#21dfca" stop-opacity="1"/><stop offset="0.76" stop-color="#1ecdba" stop-opacity="1"/><stop offset="1" stop-color="#148a7d" stop-opacity="1"/></linearGradient>
    <linearGradient id="p0-rim" gradientUnits="userSpaceOnUse" x1="0" y1="0" x2="0" y2="256"><stop offset="0" stop-color="#0d5951" stop-opacity="1"/><stop offset="0.5" stop-color="#083833" stop-opacity="1"/><stop offset="1" stop-color="#062622" stop-opacity="1"/></linearGradient>
    <linearGradient id="p0-ink" gradientUnits="userSpaceOnUse" x1="0" y1="0" x2="0" y2="256"><stop offset="0" stop-color="#effaff" stop-opacity="1"/><stop offset="0.45" stop-color="#c3deea" stop-opacity="1"/><stop offset="1" stop-color="#88adbe" stop-opacity="1"/></linearGradient>
    <linearGradient id="p0-shine" gradientUnits="userSpaceOnUse" x1="0" y1="0" x2="0" y2="256"><stop offset="0" stop-color="#ffffff" stop-opacity="0.65"/><stop offset="0.25" stop-color="#ffffff" stop-opacity="0.28"/><stop offset="0.46" stop-color="#ffffff" stop-opacity="0.08"/><stop offset="0.49" stop-color="#ffffff" stop-opacity="0"/><stop offset="1" stop-color="#ffffff" stop-opacity="0"/></linearGradient>
  </defs>
  <g transform="matrix(1 0 0 1 0 0)">
    <path d="M231.66,213.73a8,8,0,0,1-9.93,9.93L194,215.5A72.05,72.05,0,0,1,92.06,175.89h0c1.31.07,2.62.11,3.94.11a72,72,0,0,0,67.93-95.88h0A72,72,0,0,1,223.5,186Z" fill="url(#p0-body)"/>
    <path d="M231.66,213.73a8,8,0,0,1-9.93,9.93L194,215.5A72.05,72.05,0,0,1,92.06,175.89h0c1.31.07,2.62.11,3.94.11a72,72,0,0,0,67.93-95.88h0A72,72,0,0,1,223.5,186Z" fill="url(#p0-shine)"/>
    <path d="M232.07,186.76a80,80,0,0,0-62.5-114.17A80,80,0,1,0,23.93,138.76l-7.27,24.71a16,16,0,0,0,19.87,19.87l24.71-7.27a80.39,80.39,0,0,0,25.18,7.35,80,80,0,0,0,108.34,40.65l24.71,7.27a16,16,0,0,0,19.87-19.86ZM62,159.5a8.28,8.28,0,0,0-2.26.32L32,168l8.17-27.76a8,8,0,0,0-.63-6,64,64,0,1,1,26.26,26.26A8,8,0,0,0,62,159.5Zm153.79,28.73L224,216l-27.76-8.17a8,8,0,0,0-6,.63,64.05,64.05,0,0,1-85.87-24.88A79.93,79.93,0,0,0,174.7,89.71a64,64,0,0,1,41.75,92.48A8,8,0,0,0,215.82,188.23Z" fill="url(#p0-ink)"/>
  </g>
</svg>
