<svg xmlns="http://www.w3.org/2000/svg" width="256" height="256" viewBox="0 0 256 256">
  <title>Close dialog or tab</title>
  <desc>Prism dark surface. Phosphor Icons 2.1.1, copyright 2023 Phosphor Icons, MIT. Generated; see tools/icon-themes.</desc>
  <defs>
    <linearGradient id="p0-body" gradientUnits="userSpaceOnUse" x1="0" y1="0" x2="0" y2="256"><stop offset="0" stop-color="#b0e5ff" stop-opacity="1"/><stop offset="0.22" stop-color="#58c9ff" stop-opacity="1"/><stop offset="0.5" stop-color="#23b8ff" stop-opacity="1"/><stop offset="0.76" stop-color="#20a9eb" stop-opacity="1"/><stop offset="1" stop-color="#16729e" stop-opacity="1"/></linearGradient>
    <linearGradient id="p0-rim" gradientUnits="userSpaceOnUse" x1="0" y1="0" x2="0" y2="256"><stop offset="0" stop-color="#0e4a66" stop-opacity="1"/><stop offset="0.5" stop-color="#092e40" stop-opacity="1"/><stop offset="1" stop-color="#061f2b" stop-opacity="1"/></linearGradient>
    <linearGradient id="p0-ink" gradientUnits="userSpaceOnUse" x1="0" y1="0" x2="0" y2="256"><stop offset="0" stop-color="#effaff" stop-opacity="1"/><stop offset="0.45" stop-color="#c3deea" stop-opacity="1"/><stop offset="1" stop-color="#88adbe" stop-opacity="1"/></linearGradient>
    <linearGradient id="p0-shine" gradientUnits="userSpaceOnUse" x1="0" y1="0" x2="0" y2="256"><stop offset="0" stop-color="#ffffff" stop-opacity="0.65"/><stop offset="0.25" stop-color="#ffffff" stop-opacity="0.28"/><stop offset="0.46" stop-color="#ffffff" stop-opacity="0.08"/><stop offset="0.49" stop-color="#ffffff" stop-opacity="0"/><stop offset="1" stop-color="#ffffff" stop-opacity="0"/></linearGradient>
  </defs>
  <g transform="matrix(1 0 0 1 0 0)">
    <path d="M208.49,191.51a12,12,0,0,1-17,17L128,145,64.49,208.49a12,12,0,0,1-17-17L111,128,47.51,64.49a12,12,0,0,1,17-17L128,111l63.51-63.52a12,12,0,0,1,17,17L145,128Z" fill="url(#p0-body)" stroke="url(#p0-rim)" stroke-width="3" stroke-linejoin="round"/>
    <path d="M208.49,191.51a12,12,0,0,1-17,17L128,145,64.49,208.49a12,12,0,0,1-17-17L111,128,47.51,64.49a12,12,0,0,1,17-17L128,111l63.51-63.52a12,12,0,0,1,17,17L145,128Z" fill="url(#p0-shine)"/>
  </g>
</svg>
