<svg xmlns="http://www.w3.org/2000/svg" width="256" height="256" viewBox="0 0 256 256">
  <title>Windows and layout</title>
  <desc>Prism dark surface. Phosphor Icons 2.1.1, copyright 2023 Phosphor Icons, MIT. Generated; see tools/icon-themes.</desc>
  <defs>
    <linearGradient id="p0-body" gradientUnits="userSpaceOnUse" x1="0" y1="0" x2="0" y2="256"><stop offset="0" stop-color="#b0e5ff" stop-opacity="1"/><stop offset="0.22" stop-color="#58c9ff" stop-opacity="1"/><stop offset="0.5" stop-color="#23b8ff" stop-opacity="1"/><stop offset="0.76" stop-color="#20a9eb" stop-opacity="1"/><stop offset="1" stop-color="#16729e" stop-opacity="1"/></linearGradient>
    <linearGradient id="p0-rim" gradientUnits="userSpaceOnUse" x1="0" y1="0" x2="0" y2="256"><stop offset="0" stop-color="#0e4a66" stop-opacity="1"/><stop offset="0.5" stop-color="#092e40" stop-opacity="1"/><stop offset="1" stop-color="#061f2b" stop-opacity="1"/></linearGradient>
    <linearGradient id="p0-ink" gradientUnits="userSpaceOnUse" x1="0" y1="0" x2="0" y2="256"><stop offset="0" stop-color="#effaff" stop-opacity="1"/><stop offset="0.45" stop-color="#c3deea" stop-opacity="1"/><stop offset="1" stop-color="#88adbe" stop-opacity="1"/></linearGradient>
    <linearGradient id="p0-shine" gradientUnits="userSpaceOnUse" x1="0" y1="0" x2="0" y2="256"><stop offset="0" stop-color="#ffffff" stop-opacity="0.65"/><stop offset="0.25" stop-color="#ffffff" stop-opacity="0.28"/><stop offset="0.46" stop-color="#ffffff" stop-opacity="0.08"/><stop offset="0.49" stop-color="#ffffff" stop-opacity="0"/><stop offset="1" stop-color="#ffffff" stop-opacity="0"/></linearGradient>
  </defs>
  <g transform="matrix(1 0 0 1 0 0)">
    <path d="M224,56V168a8,8,0,0,1-8,8H192V88a8,8,0,0,0-8-8H64V56a8,8,0,0,1,8-8H216A8,8,0,0,1,224,56Z" fill="url(#p0-body)"/>
    <path d="M224,56V168a8,8,0,0,1-8,8H192V88a8,8,0,0,0-8-8H64V56a8,8,0,0,1,8-8H216A8,8,0,0,1,224,56Z" fill="url(#p0-shine)"/>
    <path d="M216,40H72A16,16,0,0,0,56,56V72H40A16,16,0,0,0,24,88V200a16,16,0,0,0,16,16H184a16,16,0,0,0,16-16V184h16a16,16,0,0,0,16-16V56A16,16,0,0,0,216,40ZM40,88H184v16H40ZM184,200H40V120H184v80Zm32-32H200V88a16,16,0,0,0-16-16H72V56H216Z" fill="url(#p0-ink)"/>
  </g>
</svg>
