<svg xmlns="http://www.w3.org/2000/svg" width="256" height="256" viewBox="0 0 256 256">
  <title>New private message</title>
  <desc>Prism dark surface. Phosphor Icons 2.1.1, copyright 2023 Phosphor Icons, MIT. Generated; see tools/icon-themes.</desc>
  <defs>
    <linearGradient id="p0-body" gradientUnits="userSpaceOnUse" x1="0" y1="0" x2="0" y2="256"><stop offset="0" stop-color="#b0e5ff" stop-opacity="1"/><stop offset="0.22" stop-color="#58c9ff" stop-opacity="1"/><stop offset="0.5" stop-color="#23b8ff" stop-opacity="1"/><stop offset="0.76" stop-color="#20a9eb" stop-opacity="1"/><stop offset="1" stop-color="#16729e" stop-opacity="1"/></linearGradient>
    <linearGradient id="p0-rim" gradientUnits="userSpaceOnUse" x1="0" y1="0" x2="0" y2="256"><stop offset="0" stop-color="#0e4a66" stop-opacity="1"/><stop offset="0.5" stop-color="#092e40" stop-opacity="1"/><stop offset="1" stop-color="#061f2b" stop-opacity="1"/></linearGradient>
    <linearGradient id="p0-ink" gradientUnits="userSpaceOnUse" x1="0" y1="0" x2="0" y2="256"><stop offset="0" stop-color="#effaff" stop-opacity="1"/><stop offset="0.45" stop-color="#c3deea" stop-opacity="1"/><stop offset="1" stop-color="#88adbe" stop-opacity="1"/></linearGradient>
    <linearGradient id="p0-shine" gradientUnits="userSpaceOnUse" x1="0" y1="0" x2="0" y2="256"><stop offset="0" stop-color="#ffffff" stop-opacity="0.65"/><stop offset="0.25" stop-color="#ffffff" stop-opacity="0.28"/><stop offset="0.46" stop-color="#ffffff" stop-opacity="0.08"/><stop offset="0.49" stop-color="#ffffff" stop-opacity="0"/><stop offset="1" stop-color="#ffffff" stop-opacity="0"/></linearGradient>
    <linearGradient id="p1-body" gradientUnits="userSpaceOnUse" x1="0" y1="0" x2="0" y2="256"><stop offset="0" stop-color="#fff0b2" stop-opacity="1"/><stop offset="0.22" stop-color="#ffde5d" stop-opacity="1"/><stop offset="0.5" stop-color="#ffd42a" stop-opacity="1"/><stop offset="0.76" stop-color="#ebc327" stop-opacity="1"/><stop offset="1" stop-color="#9e831a" stop-opacity="1"/></linearGradient>
    <linearGradient id="p1-rim" gradientUnits="userSpaceOnUse" x1="0" y1="0" x2="0" y2="256"><stop offset="0" stop-color="#665511" stop-opacity="1"/><stop offset="0.5" stop-color="#40350b" stop-opacity="1"/><stop offset="1" stop-color="#2b2407" stop-opacity="1"/></linearGradient>
    <linearGradient id="p1-ink" gradientUnits="userSpaceOnUse" x1="0" y1="0" x2="0" y2="256"><stop offset="0" stop-color="#effaff" stop-opacity="1"/><stop offset="0.45" stop-color="#c3deea" stop-opacity="1"/><stop offset="1" stop-color="#88adbe" stop-opacity="1"/></linearGradient>
    <linearGradient id="p1-shine" gradientUnits="userSpaceOnUse" x1="0" y1="0" x2="0" y2="256"><stop offset="0" stop-color="#ffffff" stop-opacity="0.65"/><stop offset="0.25" stop-color="#ffffff" stop-opacity="0.28"/><stop offset="0.46" stop-color="#ffffff" stop-opacity="0.08"/><stop offset="0.49" stop-color="#ffffff" stop-opacity="0"/><stop offset="1" stop-color="#ffffff" stop-opacity="0"/></linearGradient>
  </defs>
  <g transform="matrix(0.74 0 0 0.74 2 0)">
    <path d="M224,128A96,96,0,0,1,79.93,211.11h0L42.54,223.58a8,8,0,0,1-10.12-10.12l12.47-37.39h0A96,96,0,1,1,224,128Z" fill="url(#p0-body)"/>
    <path d="M224,128A96,96,0,0,1,79.93,211.11h0L42.54,223.58a8,8,0,0,1-10.12-10.12l12.47-37.39h0A96,96,0,1,1,224,128Z" fill="url(#p0-shine)"/>
    <path d="M128,24A104,104,0,0,0,36.18,176.88L24.83,210.93a16,16,0,0,0,20.24,20.24l34.05-11.35A104,104,0,1,0,128,24Zm0,192a87.87,87.87,0,0,1-44.06-11.81,8,8,0,0,0-4-1.08,7.85,7.85,0,0,0-2.53.42L40,216,52.47,178.6a8,8,0,0,0-.66-6.54A88,88,0,1,1,128,216Zm12-88a12,12,0,1,1-12-12A12,12,0,0,1,140,128Zm-44,0a12,12,0,1,1-12-12A12,12,0,0,1,96,128Zm88,0a12,12,0,1,1-12-12A12,12,0,0,1,184,128Z" fill="url(#p0-ink)"/>
  </g>
  <g transform="matrix(0.43 0 0 0.43 141 139)">
    <path d="M208,88H48a8,8,0,0,0-8,8V208a8,8,0,0,0,8,8H208a8,8,0,0,0,8-8V96A8,8,0,0,0,208,88Zm-80,72a20,20,0,1,1,20-20A20,20,0,0,1,128,160Z" fill="url(#p1-body)"/>
    <path d="M208,88H48a8,8,0,0,0-8,8V208a8,8,0,0,0,8,8H208a8,8,0,0,0,8-8V96A8,8,0,0,0,208,88Zm-80,72a20,20,0,1,1,20-20A20,20,0,0,1,128,160Z" fill="url(#p1-shine)"/>
    <path d="M208,80H176V56a48,48,0,0,0-96,0V80H48A16,16,0,0,0,32,96V208a16,16,0,0,0,16,16H208a16,16,0,0,0,16-16V96A16,16,0,0,0,208,80ZM96,56a32,32,0,0,1,64,0V80H96ZM208,208H48V96H208V208Zm-80-96a28,28,0,0,0-8,54.83V184a8,8,0,0,0,16,0V166.83A28,28,0,0,0,128,112Zm0,40a12,12,0,1,1,12-12A12,12,0,0,1,128,152Z" fill="url(#p1-ink)"/>
  </g>
</svg>
