<svg xmlns="http://www.w3.org/2000/svg" width="256" height="256" viewBox="0 0 256 256">
  <title>Keyboard shortcuts</title>
  <desc>Prism dark surface. Phosphor Icons 2.1.1, copyright 2023 Phosphor Icons, MIT. Generated; see tools/icon-themes.</desc>
  <defs>
    <linearGradient id="p0-body" gradientUnits="userSpaceOnUse" x1="0" y1="0" x2="0" y2="256"><stop offset="0" stop-color="#b0e5ff" stop-opacity="1"/><stop offset="0.22" stop-color="#58c9ff" stop-opacity="1"/><stop offset="0.5" stop-color="#23b8ff" stop-opacity="1"/><stop offset="0.76" stop-color="#20a9eb" stop-opacity="1"/><stop offset="1" stop-color="#16729e" stop-opacity="1"/></linearGradient>
    <linearGradient id="p0-rim" gradientUnits="userSpaceOnUse" x1="0" y1="0" x2="0" y2="256"><stop offset="0" stop-color="#0e4a66" stop-opacity="1"/><stop offset="0.5" stop-color="#092e40" stop-opacity="1"/><stop offset="1" stop-color="#061f2b" stop-opacity="1"/></linearGradient>
    <linearGradient id="p0-ink" gradientUnits="userSpaceOnUse" x1="0" y1="0" x2="0" y2="256"><stop offset="0" stop-color="#effaff" stop-opacity="1"/><stop offset="0.45" stop-color="#c3deea" stop-opacity="1"/><stop offset="1" stop-color="#88adbe" stop-opacity="1"/></linearGradient>
    <linearGradient id="p0-shine" gradientUnits="userSpaceOnUse" x1="0" y1="0" x2="0" y2="256"><stop offset="0" stop-color="#ffffff" stop-opacity="0.65"/><stop offset="0.25" stop-color="#ffffff" stop-opacity="0.28"/><stop offset="0.46" stop-color="#ffffff" stop-opacity="0.08"/><stop offset="0.49" stop-color="#ffffff" stop-opacity="0"/><stop offset="1" stop-color="#ffffff" stop-opacity="0"/></linearGradient>
    <linearGradient id="p1-body" gradientUnits="userSpaceOnUse" x1="0" y1="0" x2="0" y2="256"><stop offset="0" stop-color="#b0e5ff" stop-opacity="1"/><stop offset="0.22" stop-color="#58c9ff" stop-opacity="1"/><stop offset="0.5" stop-color="#23b8ff" stop-opacity="1"/><stop offset="0.76" stop-color="#20a9eb" stop-opacity="1"/><stop offset="1" stop-color="#16729e" stop-opacity="1"/></linearGradient>
    <linearGradient id="p1-rim" gradientUnits="userSpaceOnUse" x1="0" y1="0" x2="0" y2="256"><stop offset="0" stop-color="#0e4a66" stop-opacity="1"/><stop offset="0.5" stop-color="#092e40" stop-opacity="1"/><stop offset="1" stop-color="#061f2b" stop-opacity="1"/></linearGradient>
    <linearGradient id="p1-ink" gradientUnits="userSpaceOnUse" x1="0" y1="0" x2="0" y2="256"><stop offset="0" stop-color="#effaff" stop-opacity="1"/><stop offset="0.45" stop-color="#c3deea" stop-opacity="1"/><stop offset="1" stop-color="#88adbe" stop-opacity="1"/></linearGradient>
    <linearGradient id="p1-shine" gradientUnits="userSpaceOnUse" x1="0" y1="0" x2="0" y2="256"><stop offset="0" stop-color="#ffffff" stop-opacity="0.65"/><stop offset="0.25" stop-color="#ffffff" stop-opacity="0.28"/><stop offset="0.46" stop-color="#ffffff" stop-opacity="0.08"/><stop offset="0.49" stop-color="#ffffff" stop-opacity="0"/><stop offset="1" stop-color="#ffffff" stop-opacity="0"/></linearGradient>
    <linearGradient id="p2-body" gradientUnits="userSpaceOnUse" x1="0" y1="0" x2="0" y2="256"><stop offset="0" stop-color="#b0e5ff" stop-opacity="1"/><stop offset="0.22" stop-color="#58c9ff" stop-opacity="1"/><stop offset="0.5" stop-color="#23b8ff" stop-opacity="1"/><stop offset="0.76" stop-color="#20a9eb" stop-opacity="1"/><stop offset="1" stop-color="#16729e" stop-opacity="1"/></linearGradient>
    <linearGradient id="p2-rim" gradientUnits="userSpaceOnUse" x1="0" y1="0" x2="0" y2="256"><stop offset="0" stop-color="#0e4a66" stop-opacity="1"/><stop offset="0.5" stop-color="#092e40" stop-opacity="1"/><stop offset="1" stop-color="#061f2b" stop-opacity="1"/></linearGradient>
    <linearGradient id="p2-ink" gradientUnits="userSpaceOnUse" x1="0" y1="0" x2="0" y2="256"><stop offset="0" stop-color="#effaff" stop-opacity="1"/><stop offset="0.45" stop-color="#c3deea" stop-opacity="1"/><stop offset="1" stop-color="#88adbe" stop-opacity="1"/></linearGradient>
    <linearGradient id="p2-shine" gradientUnits="userSpaceOnUse" x1="0" y1="0" x2="0" y2="256"><stop offset="0" stop-color="#ffffff" stop-opacity="0.65"/><stop offset="0.25" stop-color="#ffffff" stop-opacity="0.28"/><stop offset="0.46" stop-color="#ffffff" stop-opacity="0.08"/><stop offset="0.49" stop-color="#ffffff" stop-opacity="0"/><stop offset="1" stop-color="#ffffff" stop-opacity="0"/></linearGradient>
    <linearGradient id="p3-body" gradientUnits="userSpaceOnUse" x1="0" y1="0" x2="0" y2="256"><stop offset="0" stop-color="#b0e5ff" stop-opacity="1"/><stop offset="0.22" stop-color="#58c9ff" stop-opacity="1"/><stop offset="0.5" stop-color="#23b8ff" stop-opacity="1"/><stop offset="0.76" stop-color="#20a9eb" stop-opacity="1"/><stop offset="1" stop-color="#16729e" stop-opacity="1"/></linearGradient>
    <linearGradient id="p3-rim" gradientUnits="userSpaceOnUse" x1="0" y1="0" x2="0" y2="256"><stop offset="0" stop-color="#0e4a66" stop-opacity="1"/><stop offset="0.5" stop-color="#092e40" stop-opacity="1"/><stop offset="1" stop-color="#061f2b" stop-opacity="1"/></linearGradient>
    <linearGradient id="p3-ink" gradientUnits="userSpaceOnUse" x1="0" y1="0" x2="0" y2="256"><stop offset="0" stop-color="#effaff" stop-opacity="1"/><stop offset="0.45" stop-color="#c3deea" stop-opacity="1"/><stop offset="1" stop-color="#88adbe" stop-opacity="1"/></linearGradient>
    <linearGradient id="p3-shine" gradientUnits="userSpaceOnUse" x1="0" y1="0" x2="0" y2="256"><stop offset="0" stop-color="#ffffff" stop-opacity="0.65"/><stop offset="0.25" stop-color="#ffffff" stop-opacity="0.28"/><stop offset="0.46" stop-color="#ffffff" stop-opacity="0.08"/><stop offset="0.49" stop-color="#ffffff" stop-opacity="0"/><stop offset="1" stop-color="#ffffff" stop-opacity="0"/></linearGradient>
  </defs>
  <g transform="matrix(0.38 0 0 0.38 79.36 39)">
    <path d="M216,48V208a8,8,0,0,1-8,8H48a8,8,0,0,1-8-8V48a8,8,0,0,1,8-8H208A8,8,0,0,1,216,48Z" fill="url(#p0-body)"/>
    <path d="M216,48V208a8,8,0,0,1-8,8H48a8,8,0,0,1-8-8V48a8,8,0,0,1,8-8H208A8,8,0,0,1,216,48Z" fill="url(#p0-shine)"/>
    <path d="M208,32H48A16,16,0,0,0,32,48V208a16,16,0,0,0,16,16H208a16,16,0,0,0,16-16V48A16,16,0,0,0,208,32Zm0,176H48V48H208ZM90.34,125.66a8,8,0,0,1,0-11.32l32-32a8,8,0,0,1,11.32,0l32,32a8,8,0,0,1-11.32,11.32L136,107.31V168a8,8,0,0,1-16,0V107.31l-18.34,18.35A8,8,0,0,1,90.34,125.66Z" fill="url(#p0-ink)"/>
  </g>
  <g transform="matrix(0.38 0 0 0.38 -0.6 124)">
    <path d="M216,48V208a8,8,0,0,1-8,8H48a8,8,0,0,1-8-8V48a8,8,0,0,1,8-8H208A8,8,0,0,1,216,48Z" fill="url(#p1-body)"/>
    <path d="M216,48V208a8,8,0,0,1-8,8H48a8,8,0,0,1-8-8V48a8,8,0,0,1,8-8H208A8,8,0,0,1,216,48Z" fill="url(#p1-shine)"/>
    <path d="M208,32H48A16,16,0,0,0,32,48V208a16,16,0,0,0,16,16H208a16,16,0,0,0,16-16V48A16,16,0,0,0,208,32Zm0,176H48V48H208ZM82.34,133.66a8,8,0,0,1,0-11.32l32-32a8,8,0,0,1,11.32,11.32L107.31,120H168a8,8,0,0,1,0,16H107.31l18.35,18.34a8,8,0,0,1-11.32,11.32Z" fill="url(#p1-ink)"/>
  </g>
  <g transform="matrix(0.38 0 0 0.38 79.36 124)">
    <path d="M216,48V208a8,8,0,0,1-8,8H48a8,8,0,0,1-8-8V48a8,8,0,0,1,8-8H208A8,8,0,0,1,216,48Z" fill="url(#p2-body)"/>
    <path d="M216,48V208a8,8,0,0,1-8,8H48a8,8,0,0,1-8-8V48a8,8,0,0,1,8-8H208A8,8,0,0,1,216,48Z" fill="url(#p2-shine)"/>
    <path d="M208,32H48A16,16,0,0,0,32,48V208a16,16,0,0,0,16,16H208a16,16,0,0,0,16-16V48A16,16,0,0,0,208,32Zm0,176H48V48H208V208Zm-42.34-77.66a8,8,0,0,1,0,11.32l-32,32a8,8,0,0,1-11.32,0l-32-32a8,8,0,0,1,11.32-11.32L120,148.69V88a8,8,0,0,1,16,0v60.69l18.34-18.35A8,8,0,0,1,165.66,130.34Z" fill="url(#p2-ink)"/>
  </g>
  <g transform="matrix(0.38 0 0 0.38 159.32 124)">
    <path d="M216,48V208a8,8,0,0,1-8,8H48a8,8,0,0,1-8-8V48a8,8,0,0,1,8-8H208A8,8,0,0,1,216,48Z" fill="url(#p3-body)"/>
    <path d="M216,48V208a8,8,0,0,1-8,8H48a8,8,0,0,1-8-8V48a8,8,0,0,1,8-8H208A8,8,0,0,1,216,48Z" fill="url(#p3-shine)"/>
    <path d="M208,32H48A16,16,0,0,0,32,48V208a16,16,0,0,0,16,16H208a16,16,0,0,0,16-16V48A16,16,0,0,0,208,32Zm0,176H48V48H208ZM80,128a8,8,0,0,1,8-8h60.69l-18.35-18.34a8,8,0,0,1,11.32-11.32l32,32a8,8,0,0,1,0,11.32l-32,32a8,8,0,0,1-11.32-11.32L148.69,136H88A8,8,0,0,1,80,128Z" fill="url(#p3-ink)"/>
  </g>
</svg>
