<svg xmlns="http://www.w3.org/2000/svg" width="256" height="256" viewBox="0 0 256 256">
  <title>Filter</title>
  <desc>Prism dark surface. Phosphor Icons 2.1.1, copyright 2023 Phosphor Icons, MIT. Generated; see tools/icon-themes.</desc>
  <defs>
    <linearGradient id="p0-body" gradientUnits="userSpaceOnUse" x1="0" y1="0" x2="0" y2="256"><stop offset="0" stop-color="#aff3ec" stop-opacity="1"/><stop offset="0.22" stop-color="#56e7d7" stop-opacity="1"/><stop offset="0.5" stop-color="#21dfca" stop-opacity="1"/><stop offset="0.76" stop-color="#1ecdba" stop-opacity="1"/><stop offset="1" stop-color="#148a7d" stop-opacity="1"/></linearGradient>
    <linearGradient id="p0-rim" gradientUnits="userSpaceOnUse" x1="0" y1="0" x2="0" y2="256"><stop offset="0" stop-color="#0d5951" stop-opacity="1"/><stop offset="0.5" stop-color="#083833" stop-opacity="1"/><stop offset="1" stop-color="#062622" stop-opacity="1"/></linearGradient>
    <linearGradient id="p0-ink" gradientUnits="userSpaceOnUse" x1="0" y1="0" x2="0" y2="256"><stop offset="0" stop-color="#effaff" stop-opacity="1"/><stop offset="0.45" stop-color="#c3deea" stop-opacity="1"/><stop offset="1" stop-color="#88adbe" stop-opacity="1"/></linearGradient>
    <linearGradient id="p0-shine" gradientUnits="userSpaceOnUse" x1="0" y1="0" x2="0" y2="256"><stop offset="0" stop-color="#ffffff" stop-opacity="0.65"/><stop offset="0.25" stop-color="#ffffff" stop-opacity="0.28"/><stop offset="0.46" stop-color="#ffffff" stop-opacity="0.08"/><stop offset="0.49" stop-color="#ffffff" stop-opacity="0"/><stop offset="1" stop-color="#ffffff" stop-opacity="0"/></linearGradient>
  </defs>
  <g transform="matrix(1 0 0 1 0 0)">
    <path d="M221.9,61.38,152,136v58.65a8,8,0,0,1-3.56,6.66l-32,21.33A8,8,0,0,1,104,216V136L34.1,61.38A8,8,0,0,1,40,48H216A8,8,0,0,1,221.9,61.38Z" fill="url(#p0-body)"/>
    <path d="M221.9,61.38,152,136v58.65a8,8,0,0,1-3.56,6.66l-32,21.33A8,8,0,0,1,104,216V136L34.1,61.38A8,8,0,0,1,40,48H216A8,8,0,0,1,221.9,61.38Z" fill="url(#p0-shine)"/>
    <path d="M230.6,49.53A15.81,15.81,0,0,0,216,40H40A16,16,0,0,0,28.19,66.76l.08.09L96,139.17V216a16,16,0,0,0,24.87,13.32l32-21.34A16,16,0,0,0,160,194.66V139.17l67.74-72.32.08-.09A15.8,15.8,0,0,0,230.6,49.53ZM40,56h0Zm106.18,74.58A8,8,0,0,0,144,136v58.66L112,216V136a8,8,0,0,0-2.16-5.47L40,56H216Z" fill="url(#p0-ink)"/>
  </g>
</svg>
