<svg xmlns="http://www.w3.org/2000/svg" width="256" height="256" viewBox="0 0 256 256">
  <title>Automatic directory-list search</title>
  <desc>Contour dark surface. Phosphor Icons 2.1.1, copyright 2023 Phosphor Icons, MIT. Generated; see tools/icon-themes.</desc>
  <g transform="matrix(0.74 0 0 0.74 2 0)">
    <path d="M216,74H130L101.73,52.8a14,14,0,0,0-8.4-2.8H40A14,14,0,0,0,26,64V200a14,14,0,0,0,14,14H216.89A13.12,13.12,0,0,0,230,200.89V88A14,14,0,0,0,216,74Zm2,126.89a1.11,1.11,0,0,1-1.11,1.11H40a2,2,0,0,1-2-2V64a2,2,0,0,1,2-2H93.33a2,2,0,0,1,1.2.4L124.4,84.8A6,6,0,0,0,128,86h88a2,2,0,0,1,2,2Z" fill="#e2eaf0"/>
  </g>
  <g transform="matrix(0.43 0 0 0.43 141 139)">
    <path d="M229.66,218.34l-50.07-50.06a88.11,88.11,0,1,0-11.31,11.31l50.06,50.07a8,8,0,0,0,11.32-11.32ZM40,112a72,72,0,1,1,72,72A72.08,72.08,0,0,1,40,112Z" fill="#76cfd0"/>
  </g>
</svg>
