<svg xmlns="http://www.w3.org/2000/svg" width="256" height="256" viewBox="0 0 256 256">
  <title>New hub message</title>
  <desc>Contour dark surface. Phosphor Icons 2.1.1, copyright 2023 Phosphor Icons, MIT. Generated; see tools/icon-themes.</desc>
  <defs>
    <linearGradient id="p0-color" gradientUnits="userSpaceOnUse" x1="0" y1="0" x2="256" y2="0"><stop offset="0" stop-color="#e2eaf0" stop-opacity="1"/><stop offset="0.37" stop-color="#e2eaf0" stop-opacity="1"/><stop offset="0.37" stop-color="#76cfd0" stop-opacity="1"/><stop offset="0.63" stop-color="#76cfd0" stop-opacity="1"/><stop offset="0.63" stop-color="#e2eaf0" stop-opacity="1"/><stop offset="1" stop-color="#e2eaf0" stop-opacity="1"/></linearGradient>
  </defs>
  <g transform="matrix(0.74 0 0 0.74 2 0)">
    <path d="M128,26A102,102,0,1,0,230,128,102.12,102.12,0,0,0,128,26Zm81.57,64H169.19a132.58,132.58,0,0,0-25.73-50.67A90.29,90.29,0,0,1,209.57,90ZM218,128a89.7,89.7,0,0,1-3.83,26H171.81a155.43,155.43,0,0,0,0-52h42.36A89.7,89.7,0,0,1,218,128Zm-90,87.83a110,110,0,0,1-15.19-19.45A124.24,124.24,0,0,1,99.35,166h57.3a124.24,124.24,0,0,1-13.46,30.38A110,110,0,0,1,128,215.83ZM96.45,154a139.18,139.18,0,0,1,0-52h63.1a139.18,139.18,0,0,1,0,52ZM38,128a89.7,89.7,0,0,1,3.83-26H84.19a155.43,155.43,0,0,0,0,52H41.83A89.7,89.7,0,0,1,38,128Zm90-87.83a110,110,0,0,1,15.19,19.45A124.24,124.24,0,0,1,156.65,90H99.35a124.24,124.24,0,0,1,13.46-30.38A110,110,0,0,1,128,40.17Zm-15.46-.84A132.58,132.58,0,0,0,86.81,90H46.43A90.29,90.29,0,0,1,112.54,39.33ZM46.43,166H86.81a132.58,132.58,0,0,0,25.73,50.67A90.29,90.29,0,0,1,46.43,166Zm97,50.67A132.58,132.58,0,0,0,169.19,166h40.38A90.29,90.29,0,0,1,143.46,216.67Z" fill="url(#p0-color)"/>
  </g>
  <g transform="matrix(0.43 0 0 0.43 141 139)">
    <path d="M140,128a12,12,0,1,1-12-12A12,12,0,0,1,140,128ZM84,116a12,12,0,1,0,12,12A12,12,0,0,0,84,116Zm88,0a12,12,0,1,0,12,12A12,12,0,0,0,172,116Zm60,12A104,104,0,0,1,79.12,219.82L45.07,231.17a16,16,0,0,1-20.24-20.24l11.35-34.05A104,104,0,1,1,232,128Zm-16,0A88,88,0,1,0,51.81,172.06a8,8,0,0,1,.66,6.54L40,216,77.4,203.53a7.85,7.85,0,0,1,2.53-.42,8,8,0,0,1,4,1.08A88,88,0,0,0,216,128Z" fill="#f0ba59"/>
  </g>
</svg>
