<svg xmlns="http://www.w3.org/2000/svg" width="256" height="256" viewBox="0 0 256 256">
  <title>Main settings</title>
  <desc>Contour dark surface. Phosphor Icons 2.1.1, copyright 2023 Phosphor Icons, MIT. Generated; see tools/icon-themes.</desc>
  <defs>
    <linearGradient id="p0-color" gradientUnits="userSpaceOnUse" x1="0" y1="0" x2="0" y2="256"><stop offset="0" stop-color="#e2eaf0" stop-opacity="1"/><stop offset="0.78" stop-color="#e2eaf0" stop-opacity="1"/><stop offset="0.78" stop-color="#76cfd0" stop-opacity="1"/><stop offset="1" stop-color="#76cfd0" stop-opacity="1"/></linearGradient>
  </defs>
  <g transform="matrix(1 0 0 1 0 0)">
    <path d="M229.19,213c-15.81-27.32-40.63-46.49-69.47-54.62a70,70,0,1,0-63.44,0C67.44,166.5,42.62,185.67,26.81,213a6,6,0,1,0,10.38,6C56.4,185.81,90.34,166,128,166s71.6,19.81,90.81,53a6,6,0,1,0,10.38-6ZM70,96a58,58,0,1,1,58,58A58.07,58.07,0,0,1,70,96Z" fill="url(#p0-color)"/>
  </g>
</svg>
